<svg width="77" height="77" viewBox="0 0 77 77" fill="none" xmlns="http://www.w3.org/2000/svg">
<path d="M69 38.5C73.4183 38.5 77.0833 42.1195 76.1718 46.4427C75.1643 51.2211 73.2517 55.7886 70.5116 59.8895C66.2811 66.2207 60.2683 71.1554 53.2333 74.0694C46.1984 76.9833 38.4573 77.7458 30.989 76.2602C23.5208 74.7747 16.6607 71.1079 11.2764 65.7236C5.89207 60.3393 2.2253 53.4792 0.739767 46.011C-0.745764 38.5427 0.0166642 30.8016 2.93064 23.7667C5.84461 16.7317 10.7793 10.7189 17.1105 6.48842C21.2114 3.7483 25.7789 1.8357 30.5573 0.828196C34.8805 -0.08334 38.5 3.58172 38.5 8L38.5 24.4798C38.5 27.3501 35.9847 29.5692 33.5982 31.1639V31.1639C32.1472 32.1334 31.0163 33.5113 30.3485 35.1236C29.6807 36.7358 29.506 38.5098 29.8465 40.2213C30.1869 41.9328 31.0272 43.5049 32.2611 44.7389C33.4951 45.9728 35.0672 46.8131 36.7787 47.1535C38.4902 47.494 40.2642 47.3193 41.8764 46.6515C43.4887 45.9837 44.8666 44.8528 45.8361 43.4018V43.4018C47.4308 41.0153 49.6499 38.5 52.5202 38.5H69Z" fill="#1A1A1A"/>
</svg>
