<svg width="130" height="130" viewBox="0 0 130 130" fill="none" xmlns="http://www.w3.org/2000/svg">
<rect width="130" height="130" fill="#EEEEEE"/>
<path fill-rule="evenodd" clip-rule="evenodd" d="M60.3666 22.368C60.2619 22.6512 59.7925 24.6671 59.5462 25.8926C58.4206 31.491 58.3848 35.311 59.4261 38.6967C59.4995 38.935 59.8067 39.637 60.1091 40.2567C60.7342 41.5382 61.5834 42.7208 63.2312 44.6052C65.8633 47.6148 66.7068 48.8458 67.3782 50.6561C68.363 53.3124 68.3993 56.843 67.4669 59.28C67.1667 60.0647 67.0525 60.2065 67.1182 59.7133C67.2924 58.4042 67.3425 57.5699 67.2954 56.7667C67.1065 53.5511 66.13 50.5284 64.4933 48.0929C63.3782 46.4336 62.3976 45.3089 59.8896 42.8133C58.5244 41.4548 57.2182 40.0948 56.9871 39.7909C55.65 38.0336 54.7743 35.7536 54.037 32.11C53.6375 30.1353 53.1894 27.2697 52.9936 25.4367C52.9144 24.6952 52.8045 24.3156 52.6212 24.1497C52.4453 23.9905 52.7525 23.8754 47.1034 26.2166C45.9118 26.7105 44.8243 27.1573 44.6867 27.2096L44.4366 27.3046L44.4941 27.8873C44.5256 28.2078 44.6308 28.9185 44.7278 29.4667C45.8799 35.98 47.4318 40.0967 49.743 42.77C51.1265 44.3703 52.421 45.2555 56.0586 47.089C59.3743 48.7602 60.0065 49.167 61.3263 50.4793C63.0449 52.1881 64.2289 54.3248 64.8341 56.81C64.9976 57.4816 65.173 59.8138 65.0516 59.7022C65.019 59.6722 64.9188 59.3407 64.8291 58.9656C64.0641 55.7676 61.6647 52.2463 58.7601 50.0588C56.9216 48.6743 54.6882 47.5559 50.5268 45.936C49.2497 45.4389 48.2115 44.9481 47.5368 44.5226C45.3338 43.1336 43.0441 40.3023 40.1268 35.36C39.6344 34.5258 39.0137 33.4759 38.7475 33.0269C38.4812 32.578 38.155 32.1307 38.0225 32.033L37.7815 31.8555L34.6624 34.9747L31.5434 38.0937L32.2887 39.3051C35.8042 45.0194 38.9023 48.4207 42.2136 50.2017C44.0626 51.1961 45.883 51.5917 49.8782 51.8673C53.4787 52.1157 54.73 52.3586 56.5375 53.1601C58.6188 54.083 60.911 56.1339 62.169 58.1985C62.5183 58.7719 63.0446 59.9644 62.9778 60.0312C62.9546 60.0544 62.7681 59.8267 62.5634 59.5252C62.0734 58.8036 60.8923 57.5857 59.9737 56.8548C57.8636 55.1759 55.1999 53.9042 52.7368 53.4C50.8218 53.008 49.5878 52.926 45.4134 52.9132C41.1409 52.9001 40.9581 52.8836 39.4334 52.3734C38.5559 52.0798 36.7315 51.1978 35.6201 50.5299C33.9094 49.5016 31.3814 47.7076 28.1798 45.2493C27.8581 45.0023 27.6307 44.8933 27.4374 44.8933C27.1795 44.8933 27.1435 44.9305 26.9553 45.3917C26.8434 45.6658 26.4904 46.514 26.1709 47.2767C24.4473 51.3906 23.8081 52.9565 23.8406 52.9854C23.8605 53.0032 24.3686 53.3706 24.9698 53.8021C30.0946 57.4808 33.896 59.3647 37.3101 59.9184C39.8296 60.3268 41.6221 60.1016 45.1463 58.9336C47.2501 58.2363 48.7073 57.7898 49.4873 57.6034C52.6761 56.8414 56.3909 57.558 59.3312 59.5022C60.0393 59.9705 61.2668 61.0446 61.1868 61.1261C61.1629 61.1503 60.8173 60.9768 60.4186 60.7406C58.9217 59.8535 57.0873 59.2335 54.9034 58.8768C53.6047 58.6647 50.9244 58.6657 49.7034 58.8788C47.6915 59.2301 44.9601 60.1337 42.2068 61.3589C39.3356 62.6368 38.4189 62.9242 36.6518 63.1012C34.2427 63.3425 30.6217 62.7709 24.9497 61.2541C23.4418 60.8507 22.9168 60.7434 22.6747 60.7889L22.3601 60.8479V65.2538V69.6598L22.5551 69.7044C22.6624 69.729 23.4521 69.911 24.3101 70.1089C30.7772 71.6007 35.4725 71.7264 38.9144 70.4999C40.6786 69.8713 42.1532 68.8917 44.8578 66.5515C46.8274 64.8473 47.4459 64.355 48.3601 63.7639C49.6257 62.9456 50.8979 62.432 52.5309 62.0798C53.4532 61.8809 56.7632 61.8547 57.5901 62.0396C58.3981 62.2203 59.6473 62.6512 59.8848 62.8312C60.0963 62.9914 60.0907 62.9918 59.4948 62.8595C58.6148 62.6641 56.2121 62.6688 55.0334 62.8682C50.2201 63.6826 47.3542 65.402 42.577 70.3414C41.5393 71.4145 40.4215 72.5101 40.0932 72.7762C37.4962 74.8811 34.1751 75.8679 26.0001 76.9635C24.6892 77.1391 24.1793 77.2709 24.0593 77.4652C24.0344 77.5053 24.124 77.8078 24.2584 78.1374C25.0863 80.1682 27.3257 85.5881 27.3468 85.6121C27.3608 85.628 27.9897 85.5402 28.7445 85.4173C36.049 84.2267 40.5504 82.4731 43.3352 79.7333C44.6582 78.4317 45.3113 77.4252 47.0186 74.0567C48.8291 70.4843 49.2759 69.8012 50.6804 68.4578C52.8729 66.3607 55.8186 65.06 58.6301 64.9477C59.7444 64.9032 59.9691 64.9897 59.1068 65.1311C58.1084 65.2949 55.7791 66.2945 54.6001 67.0652C52.4607 68.4635 50.7744 70.1073 49.4736 72.0618C48.5982 73.3774 47.3504 75.8692 46.5869 77.8267C44.8661 82.2386 44.4337 82.9819 42.5072 84.8373C40.6994 86.5785 37.1647 88.9677 32.8163 91.3877C32.465 91.5832 32.1556 91.8281 32.0586 91.9874L31.8947 92.2567L34.9924 95.3558C36.7263 97.0905 38.1382 98.4365 38.1994 98.4131C38.3813 98.3436 40.0905 97.2642 41.4701 96.3475C45.438 93.7111 48.1324 91.1871 49.7267 88.6133C51.041 86.4912 51.513 84.7162 51.7882 80.86C52.1045 76.427 52.3216 75.2695 53.1846 73.4104C53.7834 72.1203 54.599 70.9832 55.7701 69.8054C56.8287 68.7409 57.4928 68.2197 58.5001 67.6633C59.0676 67.3498 59.9728 66.9639 60.023 67.014C60.0379 67.0289 59.7501 67.2629 59.3834 67.5339C58.6315 68.0898 57.428 69.2708 56.7546 70.1133C55.0322 72.2687 53.7048 75.2198 53.2656 77.87C52.9728 79.6372 52.9163 80.6749 52.9049 84.5C52.8951 87.7924 52.8715 88.4645 52.7428 89.0933C52.1524 91.979 50.4996 94.9009 46.3208 100.447C44.9714 102.237 44.6533 102.794 44.9188 102.899C44.9764 102.922 46.3494 103.496 47.9701 104.174C51.0581 105.468 52.4392 106.044 52.7477 106.167C52.9112 106.233 53.0171 106.125 53.6879 105.207C57.1377 100.486 59.1173 96.5792 59.8538 93.0367C59.9793 92.4326 60.0158 91.8852 60.0153 90.61C60.0144 88.4305 59.8185 87.4981 58.6449 84.0902C58.1169 82.5565 57.6521 80.9182 57.4514 79.8828C56.7767 76.4027 58.0734 71.9362 60.5 69.3816C61.1187 68.7302 61.3654 68.5758 61.0349 69.0466C60.941 69.1805 60.7047 69.5825 60.51 69.94C59.0438 72.6311 58.3731 76.5442 58.8062 79.8806C59.0861 82.0367 60.1264 85.251 61.5036 88.2145C62.7331 90.8604 63.0927 92.297 63.0932 94.5649C63.0937 97.1203 62.4968 100.441 61.1329 105.472C60.8759 106.42 60.7542 107.032 60.7712 107.292L60.7968 107.683L65.1856 107.706C69.0568 107.726 69.5803 107.713 69.6252 107.596C69.7968 107.148 70.5449 103.668 70.7985 102.137C71.1791 99.839 71.2747 98.7227 71.2698 96.6333C71.2659 94.9561 71.233 94.4207 71.0836 93.6C70.6168 91.0361 69.8225 89.2547 68.2399 87.2219C67.8722 86.7497 67.5473 86.3438 67.5179 86.32C67.3917 86.2178 65.2432 83.7031 64.7411 83.07C63.2533 81.1938 62.4708 79.5447 62.0378 77.3728C61.7814 76.0865 61.7611 73.6729 61.9972 72.54C62.1775 71.6747 62.5129 70.628 62.7469 70.2C62.9501 69.8284 62.9488 69.8082 62.7906 70.8575C62.3675 73.6645 63.0519 77.3957 64.5236 80.3055C65.6291 82.4913 66.9158 84.09 70.2014 87.36C71.5663 88.7185 72.8861 90.103 73.134 90.4367C73.6498 91.1305 74.586 92.9818 74.9151 93.9583C75.6984 96.2827 76.3251 99.499 76.9943 104.63C77.0647 105.17 77.1775 105.658 77.2618 105.786C77.4365 106.053 77.5184 106.04 78.6486 105.565C79.0785 105.384 80.1032 104.959 80.926 104.62C84.7883 103.03 85.4155 102.765 85.4897 102.695C85.5378 102.649 85.4761 102.043 85.334 101.164C83.8742 92.1428 81.5314 87.4036 77.2003 84.7114C76.7842 84.4528 75.4192 83.7199 74.1669 83.0829C71.1055 81.5256 70.7407 81.3147 69.6305 80.4599C66.9103 78.3656 64.8933 74.4094 64.9213 71.2233L64.9291 70.33L65.1243 71.0667C65.6532 73.0629 66.6475 75.0393 68.0236 76.83C68.6711 77.6728 70.1841 79.1924 71.0207 79.8405C72.3462 80.8675 75.149 82.4072 77.0901 83.1749C77.4714 83.3257 78.4329 83.7027 79.2267 84.0127C81.9564 85.0786 82.9079 85.6642 84.5102 87.2646C86.2318 88.9842 87.9335 91.3936 90.3312 95.5067C91.6973 97.8501 91.6889 97.8371 91.9758 98.0066L92.2148 98.1477L95.2908 95.0726C96.9826 93.3813 98.3668 91.9682 98.3668 91.9323C98.3668 91.8246 97.1865 89.9186 96.2597 88.53C92.7355 83.2489 89.5269 80.2895 86.0168 79.0825C84.7427 78.6445 83.4788 78.444 80.5568 78.2165C77.2287 77.9573 75.8968 77.7606 74.6547 77.345C73.5545 76.977 72.9364 76.678 71.9334 76.0287C69.8783 74.6983 68.0331 72.6227 67.2647 70.7771C66.9998 70.1405 66.9011 69.7244 67.097 70.07C67.1511 70.1653 67.3727 70.4773 67.5894 70.7633C68.8494 72.4252 70.8882 74.0554 73.1034 75.1721C76.1766 76.7214 79.0592 77.2108 84.5001 77.1072C85.9617 77.0794 87.4623 77.0959 88.0034 77.1456C91.0906 77.4296 94.0667 78.9811 99.8238 83.3078C102.025 84.9618 102.612 85.3272 102.776 85.1435C102.815 85.0994 103.179 84.2638 103.585 83.2867C103.99 82.3095 104.725 80.5414 105.218 79.3576C105.918 77.6755 106.093 77.1737 106.022 77.061C105.902 76.8699 104.534 75.8729 102.873 74.7656C97.1921 70.978 93.0875 69.5682 89.079 70.0275C87.9288 70.1593 86.68 70.4837 84.3856 71.2469C80.7345 72.4614 79.5006 72.7391 77.7834 72.7332C75.2563 72.7242 72.5875 71.8859 70.4878 70.4414C69.8421 69.9972 68.6701 68.9278 68.7458 68.852C68.7697 68.8282 68.9977 68.949 69.2526 69.1206C71.2203 70.4447 74.5704 71.3267 77.6326 71.3267C79.6846 71.3267 80.8511 71.1349 83.2434 70.4045C84.7988 69.9296 85.8864 69.5094 88.1401 68.5127C91.3545 67.0911 92.369 66.8562 94.9746 66.9304C97.6825 67.0075 100.69 67.5813 105.995 69.0326C106.792 69.2508 107.148 69.311 107.338 69.2601L107.597 69.1908L107.619 64.8084C107.637 61.3488 107.619 60.417 107.533 60.3839C107.086 60.2124 104.269 59.593 102.353 59.2449C99.2583 58.6824 95.6021 58.5477 93.5134 58.9192C91.3943 59.2961 89.8916 59.8828 88.2719 60.9657C87.2934 61.6201 86.8625 61.9671 84.6204 63.9058C82.1441 66.0473 80.8014 66.917 79.0559 67.5106C76.7314 68.301 74.0259 68.4128 71.7168 67.8139C70.8701 67.5943 69.5785 67.0415 70.0968 67.1206C72.9771 67.56 75.7495 67.2713 78.5083 66.2446C81.5215 65.1234 83.5713 63.6023 87.5811 59.5124C89.9217 57.125 90.6215 56.5603 92.1666 55.8124C94.564 54.6519 97.6532 53.9246 103.558 53.1303C105.46 52.8745 105.907 52.7523 105.907 52.4877C105.907 52.4245 105.192 50.6411 104.319 48.5247C103.446 46.4083 102.708 44.6132 102.679 44.5356C102.636 44.418 102.557 44.4061 102.209 44.464C101.978 44.5022 101.381 44.5981 100.88 44.6773C93.3207 45.8726 88.2962 48.0679 85.7168 51.3025C84.8213 52.4254 84.2627 53.3602 83.0732 55.7267C81.4318 58.9923 80.937 59.8155 79.9427 60.9351C77.6424 63.525 73.7038 65.2774 70.5901 65.0963C70.2742 65.0779 70.3089 65.0587 70.9801 64.8793C72.2 64.5534 72.6229 64.3976 73.7101 63.8734C76.0428 62.7489 78.3392 60.8906 79.8547 58.9013C81.1804 57.1611 82.546 54.474 83.8464 51.0467C84.8963 48.2795 85.5639 47.1325 86.9666 45.686C88.7449 43.8521 91.2668 42.0643 95.7234 39.4785C97.5192 38.4365 98.0523 38.0479 97.9993 37.8192C97.9598 37.6482 92.002 31.634 91.8718 31.6337C91.708 31.6332 90.8347 32.1524 89.1801 33.2337C84.8866 36.0399 82.1345 38.5183 80.4674 41.08C78.9112 43.4713 78.4425 45.2127 78.1337 49.7493C77.9085 53.0588 77.6577 54.51 77.0435 56.0579C76.0024 58.6817 73.5661 61.3297 71.0224 62.6023C70.6881 62.7695 70.2981 62.9306 70.1557 62.9603L69.8968 63.0143L70.1104 62.8588C71.3555 61.9524 72.1678 61.1955 73.0365 60.1319C74.8221 57.9457 76.144 55.1434 76.6473 52.4767C76.9924 50.649 77.0767 49.2774 77.0867 45.3267C77.0952 41.9901 77.1171 41.3795 77.2484 40.7992C77.883 37.9938 79.4035 35.266 83.0579 30.3767C83.6279 29.614 84.2391 28.8145 84.4161 28.6C84.8769 28.0415 85.1061 27.6366 85.1064 27.3802C85.1068 27.1743 85.0071 27.1155 83.8284 26.6258C83.1254 26.3337 81.5166 25.6608 80.2534 25.1305C76.9433 23.7408 77.0621 23.7818 76.9093 23.9766C76.4424 24.572 74.6802 27.1169 74.03 28.1346C71.1378 32.6621 69.7811 36.5062 69.9046 39.8233C69.967 41.4994 70.2232 42.6075 71.3279 45.9767C72.5413 49.6778 72.7816 50.8888 72.6776 52.78C72.5158 55.7236 71.2914 58.7285 69.4725 60.6466C68.8917 61.2589 68.6034 61.4272 68.9575 60.9473C69.8613 59.722 70.7432 57.2612 71.1232 54.9033C71.3325 53.6045 71.3306 50.9066 71.1195 49.7467C70.689 47.3812 69.9665 45.2105 68.5089 41.9033C67.1264 38.7668 66.8741 37.7769 66.8742 35.49C66.8742 33.4748 67.065 32.0979 67.8291 28.6C68.0624 27.5316 68.2448 26.8073 68.8701 24.4671C69.1657 23.3608 69.2532 22.8982 69.2102 22.6688L69.1522 22.36L66.5345 22.3597C65.0947 22.3596 63.1282 22.334 62.1643 22.3028C60.6994 22.2553 60.4044 22.266 60.3666 22.368Z" fill="#131313"/>
</svg>
