<svg width="130" height="130" viewBox="0 0 130 130" fill="none" xmlns="http://www.w3.org/2000/svg">
<rect width="130" height="130" fill="#131313"/>
<path fill-rule="evenodd" clip-rule="evenodd" d="M60.3664 22.368C60.2616 22.6512 59.7922 24.6671 59.5459 25.8926C58.4204 31.491 58.3846 35.311 59.4259 38.6967C59.4992 38.935 59.8064 39.637 60.1088 40.2567C60.734 41.5382 61.5831 42.7208 63.231 44.6052C65.8631 47.6148 66.7066 48.8458 67.3779 50.6561C68.3628 53.3124 68.3991 56.843 67.4667 59.28C67.1664 60.0647 67.0523 60.2065 67.1179 59.7133C67.2921 58.4042 67.3423 57.5699 67.2951 56.7667C67.1062 53.5511 66.1297 50.5284 64.493 48.0929C63.378 46.4336 62.3974 45.3089 59.8894 42.8133C58.5241 41.4548 57.218 40.0948 56.9868 39.7909C55.6497 38.0336 54.7741 35.7536 54.0368 32.11C53.6373 30.1353 53.1892 27.2697 52.9933 25.4367C52.9141 24.6952 52.8042 24.3156 52.621 24.1497C52.4451 23.9905 52.7522 23.8754 47.1032 26.2166C45.9115 26.7105 44.824 27.1573 44.6865 27.2096L44.4364 27.3046L44.4938 27.8873C44.5254 28.2078 44.6306 28.9185 44.7276 29.4667C45.8796 35.98 47.4316 40.0967 49.7428 42.77C51.1263 44.3703 52.4207 45.2555 56.0584 47.089C59.3741 48.7602 60.0062 49.167 61.3261 50.4793C63.0447 52.1881 64.2286 54.3248 64.8338 56.81C64.9973 57.4816 65.1728 59.8138 65.0513 59.7022C65.0188 59.6722 64.9186 59.3407 64.8289 58.9656C64.0639 55.7676 61.6644 52.2463 58.7599 50.0588C56.9213 48.6743 54.6879 47.5559 50.5265 45.936C49.2495 45.4389 48.2112 44.9481 47.5365 44.5226C45.3335 43.1336 43.0439 40.3023 40.1265 35.36C39.6342 34.5258 39.0135 33.4759 38.7472 33.0269C38.481 32.578 38.1548 32.1307 38.0223 32.033L37.7812 31.8555L34.6622 34.9747L31.5431 38.0937L32.2885 39.3051C35.8039 45.0194 38.902 48.4207 42.2134 50.2017C44.0623 51.1961 45.8828 51.5917 49.878 51.8673C53.4785 52.1157 54.7298 52.3586 56.5373 53.1601C58.6185 54.083 60.9108 56.1339 62.1687 58.1985C62.5181 58.7719 63.0444 59.9644 62.9776 60.0312C62.9544 60.0544 62.7678 59.8267 62.5631 59.5252C62.0731 58.8036 60.892 57.5857 59.9735 56.8548C57.8634 55.1759 55.1997 53.9042 52.7365 53.4C50.8215 53.008 49.5876 52.926 45.4132 52.9132C41.1406 52.9001 40.9578 52.8836 39.4332 52.3734C38.5556 52.0798 36.7313 51.1978 35.6199 50.5299C33.9091 49.5016 31.3812 47.7076 28.1795 45.2493C27.8578 45.0023 27.6304 44.8933 27.4371 44.8933C27.1792 44.8933 27.1433 44.9305 26.955 45.3917C26.8431 45.6658 26.4901 46.514 26.1707 47.2767C24.4471 51.3906 23.8079 52.9565 23.8404 52.9854C23.8602 53.0032 24.3684 53.3706 24.9696 53.8021C30.0943 57.4808 33.8957 59.3647 37.3099 59.9184C39.8293 60.3268 41.6219 60.1016 45.1461 58.9336C47.2498 58.2363 48.707 57.7898 49.487 57.6034C52.6759 56.8414 56.3907 57.558 59.3309 59.5022C60.0391 59.9705 61.2665 61.0446 61.1865 61.1261C61.1627 61.1503 60.8171 60.9768 60.4184 60.7406C58.9215 59.8535 57.087 59.2335 54.9032 58.8768C53.6044 58.6647 50.9242 58.6657 49.7032 58.8788C47.6912 59.2301 44.9598 60.1337 42.2065 61.3589C39.3353 62.6368 38.4187 62.9242 36.6515 63.1012C34.2425 63.3425 30.6215 62.7709 24.9495 61.2541C23.4416 60.8507 22.9165 60.7434 22.6745 60.7889L22.3599 60.8479V65.2538V69.6598L22.5549 69.7044C22.6622 69.729 23.4519 69.911 24.3099 70.1089C30.7769 71.6007 35.4723 71.7264 38.9141 70.4999C40.6783 69.8713 42.153 68.8917 44.8576 66.5515C46.8272 64.8473 47.4457 64.355 48.3599 63.7639C49.6255 62.9456 50.8976 62.432 52.5307 62.0798C53.4529 61.8809 56.763 61.8547 57.5899 62.0396C58.3979 62.2203 59.6471 62.6512 59.8845 62.8312C60.0961 62.9914 60.0905 62.9918 59.4945 62.8595C58.6145 62.6641 56.2119 62.6688 55.0332 62.8682C50.2199 63.6826 47.3539 65.402 42.5768 70.3414C41.539 71.4145 40.4213 72.5101 40.093 72.7762C37.4959 74.8811 34.1749 75.8679 25.9999 76.9635C24.6889 77.1391 24.1791 77.2709 24.059 77.4652C24.0342 77.5053 24.1238 77.8078 24.2581 78.1374C25.0861 80.1682 27.3254 85.5881 27.3466 85.6121C27.3605 85.628 27.9895 85.5402 28.7442 85.4173C36.0488 84.2267 40.5502 82.4731 43.3349 79.7333C44.658 78.4317 45.311 77.4252 47.0183 74.0567C48.8289 70.4843 49.2757 69.8012 50.6802 68.4578C52.8727 66.3607 55.8184 65.06 58.6299 64.9477C59.7441 64.9032 59.9689 64.9897 59.1065 65.1311C58.1081 65.2949 55.7789 66.2945 54.5999 67.0652C52.4605 68.4635 50.7741 70.1073 49.4734 72.0618C48.5979 73.3774 47.3501 75.8692 46.5867 77.8267C44.8659 82.2386 44.4334 82.9819 42.5069 84.8373C40.6991 86.5785 37.1644 88.9677 32.816 91.3877C32.4648 91.5832 32.1554 91.8281 32.0584 91.9874L31.8945 92.2567L34.9921 95.3558C36.7261 97.0905 38.138 98.4365 38.1991 98.4131C38.3811 98.3436 40.0903 97.2642 41.4699 96.3475C45.4377 93.7111 48.1322 91.1871 49.7264 88.6133C51.0407 86.4912 51.5127 84.7162 51.788 80.86C52.1043 76.427 52.3213 75.2695 53.1843 73.4104C53.7832 72.1203 54.5987 70.9832 55.7699 69.8054C56.8284 68.7409 57.4925 68.2197 58.4999 67.6633C59.0674 67.3498 59.9726 66.9639 60.0228 67.014C60.0377 67.0289 59.7499 67.2629 59.3832 67.5339C58.6313 68.0898 57.4277 69.2708 56.7544 70.1133C55.032 72.2687 53.7046 75.2198 53.2654 77.87C52.9725 79.6372 52.916 80.6749 52.9047 84.5C52.8949 87.7924 52.8712 88.4645 52.7425 89.0933C52.1521 91.979 50.4993 94.9009 46.3205 100.447C44.9711 102.237 44.653 102.794 44.9186 102.899C44.9761 102.922 46.3492 103.496 47.9699 104.174C51.0579 105.468 52.439 106.044 52.7474 106.167C52.911 106.233 53.0168 106.125 53.6877 105.207C57.1375 100.486 59.117 96.5792 59.8535 93.0367C59.9791 92.4326 60.0156 91.8852 60.0151 90.61C60.0142 88.4305 59.8182 87.4981 58.6447 84.0902C58.1166 82.5565 57.6518 80.9182 57.4511 79.8828C56.7765 76.4027 58.0732 71.9362 60.4998 69.3816C61.1185 68.7302 61.3651 68.5758 61.0347 69.0466C60.9407 69.1805 60.7045 69.5825 60.5097 69.94C59.0435 72.6311 58.3728 76.5442 58.806 79.8806C59.0859 82.0367 60.1262 85.251 61.5034 88.2145C62.7328 90.8604 63.0924 92.297 63.0929 94.5649C63.0935 97.1203 62.4966 100.441 61.1326 105.472C60.8757 106.42 60.754 107.032 60.771 107.292L60.7965 107.683L65.1853 107.706C69.0566 107.726 69.58 107.713 69.6249 107.596C69.7966 107.148 70.5446 103.668 70.7983 102.137C71.1789 99.839 71.2744 98.7227 71.2696 96.6333C71.2657 94.9561 71.2328 94.4207 71.0833 93.6C70.6166 91.0361 69.8223 89.2547 68.2396 87.2219C67.872 86.7497 67.5471 86.3438 67.5177 86.32C67.3914 86.2178 65.243 83.7031 64.7409 83.07C63.2531 81.1938 62.4706 79.5447 62.0376 77.3728C61.7812 76.0865 61.7609 73.6729 61.997 72.54C62.1772 71.6747 62.5126 70.628 62.7467 70.2C62.9499 69.8284 62.9485 69.8082 62.7904 70.8575C62.3673 73.6645 63.0517 77.3957 64.5234 80.3055C65.6289 82.4913 66.9155 84.09 70.2012 87.36C71.5661 88.7185 72.8858 90.103 73.1338 90.4367C73.6495 91.1305 74.5858 92.9818 74.9149 93.9583C75.6982 96.2827 76.3249 99.499 76.9941 104.63C77.0645 105.17 77.1772 105.658 77.2616 105.786C77.4363 106.053 77.5182 106.04 78.6484 105.565C79.0783 105.384 80.103 104.959 80.9257 104.62C84.788 103.03 85.4152 102.765 85.4894 102.695C85.5375 102.649 85.4759 102.043 85.3338 101.164C83.874 92.1428 81.5312 87.4036 77.2 84.7114C76.7839 84.4528 75.4189 83.7199 74.1667 83.0829C71.1053 81.5256 70.7405 81.3147 69.6303 80.4599C66.9101 78.3656 64.8931 74.4094 64.9211 71.2233L64.9289 70.33L65.1241 71.0667C65.653 73.0629 66.6472 75.0393 68.0233 76.83C68.6709 77.6728 70.1838 79.1924 71.0204 79.8405C72.346 80.8675 75.1488 82.4072 77.0899 83.1749C77.4712 83.3257 78.4327 83.7027 79.2265 84.0127C81.9562 85.0786 82.9076 85.6642 84.5099 87.2646C86.2316 88.9842 87.9332 91.3936 90.331 95.5067C91.6971 97.8501 91.6886 97.8371 91.9756 98.0066L92.2146 98.1477L95.2906 95.0726C96.9824 93.3813 98.3665 91.9682 98.3665 91.9323C98.3665 91.8246 97.1862 89.9186 96.2595 88.53C92.7353 83.2489 89.5266 80.2895 86.0165 79.0825C84.7424 78.6445 83.4786 78.444 80.5565 78.2165C77.2284 77.9573 75.8965 77.7606 74.6544 77.345C73.5542 76.977 72.9362 76.678 71.9332 76.0287C69.8781 74.6983 68.0329 72.6227 67.2645 70.7771C66.9995 70.1405 66.9008 69.7244 67.0968 70.07C67.1508 70.1653 67.3725 70.4773 67.5892 70.7633C68.8492 72.4252 70.888 74.0554 73.1032 75.1721C76.1764 76.7214 79.0589 77.2108 84.4999 77.1072C85.9614 77.0794 87.462 77.0959 88.0032 77.1456C91.0903 77.4296 94.0665 78.9811 99.8236 83.3078C102.024 84.9618 102.612 85.3272 102.776 85.1435C102.815 85.0994 103.179 84.2638 103.584 83.2867C103.99 82.3095 104.725 80.5414 105.217 79.3576C105.917 77.6755 106.093 77.1737 106.022 77.061C105.902 76.8699 104.534 75.8729 102.873 74.7656C97.1918 70.978 93.0872 69.5682 89.0787 70.0275C87.9286 70.1593 86.6798 70.4837 84.3854 71.2469C80.7343 72.4614 79.5003 72.7391 77.7832 72.7332C75.2561 72.7242 72.5873 71.8859 70.4875 70.4414C69.8418 69.9972 68.6698 68.9278 68.7456 68.852C68.7694 68.8282 68.9975 68.949 69.2523 69.1206C71.22 70.4447 74.5701 71.3267 77.6324 71.3267C79.6844 71.3267 80.8508 71.1349 83.2432 70.4045C84.7986 69.9296 85.8862 69.5094 88.1399 68.5127C91.3542 67.0911 92.3688 66.8562 94.9743 66.9304C97.6823 67.0075 100.69 67.5813 105.994 69.0326C106.792 69.2508 107.147 69.311 107.338 69.2601L107.597 69.1908L107.619 64.8084C107.637 61.3488 107.618 60.417 107.532 60.3839C107.085 60.2124 104.269 59.593 102.353 59.2449C99.2581 58.6824 95.6019 58.5477 93.5132 58.9192C91.394 59.2961 89.8913 59.8828 88.2717 60.9657C87.2931 61.6201 86.8622 61.9671 84.6202 63.9058C82.1438 66.0473 80.8012 66.917 79.0556 67.5106C76.7312 68.301 74.0257 68.4128 71.7165 67.8139C70.8699 67.5943 69.5783 67.0415 70.0966 67.1206C72.9768 67.56 75.7492 67.2713 78.5081 66.2446C81.5212 65.1234 83.5711 63.6023 87.5809 59.5124C89.9215 57.125 90.6213 56.5603 92.1664 55.8124C94.5638 54.6519 97.653 53.9246 103.558 53.1303C105.46 52.8745 105.907 52.7523 105.907 52.4877C105.907 52.4245 105.192 50.6411 104.319 48.5247C103.446 46.4083 102.708 44.6132 102.679 44.5356C102.635 44.418 102.557 44.4061 102.208 44.464C101.978 44.5022 101.38 44.5981 100.88 44.6773C93.3204 45.8726 88.2959 48.0679 85.7166 51.3025C84.821 52.4254 84.2625 53.3602 83.073 55.7267C81.4316 58.9923 80.9367 59.8155 79.9424 60.9351C77.6422 63.525 73.7035 65.2774 70.5899 65.0963C70.274 65.0779 70.3086 65.0587 70.9799 64.8793C72.1998 64.5534 72.6226 64.3976 73.7099 63.8734C76.0426 62.7489 78.339 60.8906 79.8544 58.9013C81.1802 57.1611 82.5458 54.474 83.8461 51.0467C84.896 48.2795 85.5637 47.1325 86.9664 45.686C88.7446 43.8521 91.2665 42.0643 95.7232 39.4785C97.5189 38.4365 98.052 38.0479 97.9991 37.8192C97.9595 37.6482 92.0017 31.634 91.8716 31.6337C91.7078 31.6332 90.8344 32.1524 89.1799 33.2337C84.8863 36.0399 82.1343 38.5183 80.4672 41.08C78.911 43.4713 78.4422 45.2127 78.1335 49.7493C77.9083 53.0588 77.6574 54.51 77.0432 56.0579C76.0021 58.6817 73.5658 61.3297 71.0222 62.6023C70.6879 62.7695 70.2979 62.9306 70.1555 62.9603L69.8965 63.0143L70.1102 62.8588C71.3553 61.9524 72.1675 61.1955 73.0363 60.1319C74.8219 57.9457 76.1437 55.1434 76.6471 52.4767C76.9922 50.649 77.0764 49.2774 77.0865 45.3267C77.095 41.9901 77.1168 41.3795 77.2481 40.7992C77.8828 37.9938 79.4033 35.266 83.0576 30.3767C83.6277 29.614 84.2388 28.8145 84.4159 28.6C84.8767 28.0415 85.1058 27.6366 85.1062 27.3802C85.1065 27.1743 85.0069 27.1155 83.8282 26.6258C83.1252 26.3337 81.5164 25.6608 80.2532 25.1305C76.943 23.7408 77.0619 23.7818 76.9091 23.9766C76.4422 24.572 74.6799 27.1169 74.0297 28.1346C71.1376 32.6621 69.7808 36.5062 69.9043 39.8233C69.9667 41.4994 70.223 42.6075 71.3277 45.9767C72.5411 49.6778 72.7813 50.8888 72.6774 52.78C72.5155 55.7236 71.2912 58.7285 69.4722 60.6466C68.8915 61.2589 68.6031 61.4272 68.9572 60.9473C69.8611 59.722 70.7429 57.2612 71.1229 54.9033C71.3322 53.6045 71.3303 50.9066 71.1192 49.7467C70.6887 47.3812 69.9663 45.2105 68.5087 41.9033C67.1261 38.7668 66.8739 37.7769 66.8739 35.49C66.8739 33.4748 67.0648 32.0979 67.8288 28.6C68.0621 27.5316 68.2446 26.8073 68.8699 24.4671C69.1655 23.3608 69.2529 22.8982 69.21 22.6688L69.152 22.36L66.5343 22.3597C65.0945 22.3596 63.1279 22.334 62.164 22.3028C60.6991 22.2553 60.4042 22.266 60.3664 22.368Z" fill="#EEEEEE"/>
</svg>
