<svg width="25" height="25" viewBox="0 0 25 25" fill="none" xmlns="http://www.w3.org/2000/svg">
<path d="M24.0439 13.1265C24.0468 12.5071 23.553 12.0027 22.9411 12L15.8503 11.9677C14.1369 11.9599 12.7544 10.5477 12.7623 8.81343L12.795 1.63593C12.7978 1.01656 12.304 0.512194 11.6921 0.50941L1.49904 0.463044C0.88714 0.46026 0.388814 0.960109 0.385996 1.57949L0.339063 11.8971C0.336246 12.5165 0.830003 13.0209 1.44191 13.0237L8.53274 13.0559C10.2461 13.0637 11.6286 14.4759 11.6207 16.2102L11.588 23.3877C11.5852 24.0071 12.079 24.5114 12.6909 24.5142L22.884 24.5606C23.4959 24.5634 23.9942 24.0635 23.997 23.4441L24.0439 13.1265Z" fill="#1A1A1A"/>
<path d="M17.3531 6.11228C17.965 6.11506 18.4588 6.61942 18.456 7.2388L18.409 17.5564C18.4062 18.1758 17.9079 18.6757 17.296 18.6729L7.10285 18.6265C6.49095 18.6237 5.99718 18.1194 6 17.5L6.04693 7.18235C6.04975 6.56297 6.54808 6.06313 7.15999 6.06591L17.3531 6.11228Z" fill="#1A1A1A"/>
</svg>
