<svg width="24" height="24" viewBox="0 0 24 24" fill="none" xmlns="http://www.w3.org/2000/svg">
<path d="M14.5073 7.1051C14.0411 6.70457 13.4729 6.44124 12.866 6.3444L12.7072 7.33953C13.13 7.407 13.5259 7.59045 13.8506 7.86947L14.5073 7.1051Z" fill="#2C2C2C"/>
<path d="M13.6994 8.17019C13.0663 7.67836 12.2767 7.43206 11.4763 7.47672C10.6759 7.52138 9.91859 7.85398 9.34415 8.41318C8.76972 8.97238 8.41688 9.72044 8.35073 10.5194C8.28458 11.3183 8.50957 12.1142 8.98421 12.7603C9.45884 13.4063 10.1511 13.859 10.9333 14.0347C11.7155 14.2104 12.5348 14.0973 13.2401 13.7163C13.9455 13.3353 14.4893 12.7121 14.7711 11.9616C15.053 11.2111 15.054 10.384 14.7739 9.63286L13.8323 9.98398C14.0276 10.5079 14.0269 11.0848 13.8303 11.6082C13.6337 12.1316 13.2545 12.5663 12.7625 12.8321C12.2705 13.0978 11.6991 13.1767 11.1535 13.0541C10.608 12.9316 10.1252 12.6159 9.79411 12.1653C9.46307 11.7147 9.30614 11.1595 9.35228 10.6023C9.39842 10.0451 9.64452 9.52332 10.0452 9.13329C10.4458 8.74327 10.974 8.51129 11.5323 8.48014C12.0905 8.44899 12.6413 8.62078 13.0828 8.96382L13.6994 8.17019Z" fill="#2C2C2C"/>
<path d="M14.7565 14.2026C14.9121 14.6217 14.9816 15.0678 14.9607 15.5143C14.9398 15.9609 14.8291 16.3986 14.635 16.8013C14.441 17.204 14.1676 17.5634 13.8314 17.858C13.4951 18.1525 13.1029 18.3762 12.6782 18.5156C12.2534 18.6549 11.8049 18.7072 11.3595 18.6691C10.9141 18.631 10.481 18.5035 10.0861 18.2941C9.69116 18.0846 9.34256 17.7976 9.06117 17.4503C8.77979 17.103 8.5714 16.7024 8.44849 16.2726L9.41944 15.9949C9.50498 16.2941 9.65002 16.5729 9.84587 16.8146C10.0417 17.0564 10.2843 17.2561 10.5592 17.4019C10.8341 17.5476 11.1355 17.6364 11.4455 17.6629C11.7555 17.6894 12.0677 17.6531 12.3633 17.556C12.6589 17.459 12.9319 17.3034 13.1659 17.0983C13.4 16.8933 13.5902 16.6432 13.7253 16.3629C13.8603 16.0826 13.9374 15.778 13.9519 15.4672C13.9665 15.1564 13.9181 14.8459 13.8098 14.5542L14.7565 14.2026Z" fill="#2C2C2C"/>
</svg>
