<svg width="24" height="39" viewBox="0 0 24 39" fill="none" xmlns="http://www.w3.org/2000/svg">
<path d="M12.5607 0C11.9414 0 11.4393 0.496048 11.4393 1.10795V8.19886C11.4393 9.9122 10.0333 11.3011 8.29907 11.3011H1.1215C0.502111 11.3011 0 11.7972 0 12.4091V22.6023C0 23.2142 0.502111 23.7102 1.1215 23.7102H11.4393C12.0586 23.7102 12.5607 23.2142 12.5607 22.6023V15.5114C12.5607 13.798 13.9667 12.4091 15.7009 12.4091H22.8785C23.4979 12.4091 24 11.913 24 11.3011V1.10795C24 0.496048 23.4979 0 22.8785 0H12.5607Z" fill="#1A1A1A"/>
<path d="M11.4393 27.6989C11.4393 27.087 11.9414 26.5909 12.5607 26.5909H22.8785C23.4979 26.5909 24 27.087 24 27.6989V37.892C24 38.504 23.4979 39 22.8785 39H12.5607C11.9414 39 11.4393 38.504 11.4393 37.892V27.6989Z" fill="#1A1A1A"/>
</svg>
