<svg width="200" height="200" viewBox="0 0 200 200" fill="none" xmlns="http://www.w3.org/2000/svg">
<rect width="200" height="200" rx="20" fill="#FF2400"/>
<path d="M88.1714 75H112.171V145C112.171 147.209 110.381 149 108.171 149H92.1714C89.9622 149 88.1714 147.209 88.1714 145V75Z" fill="white"/>
<path d="M48 75C45.7909 75 44 73.2091 44 71V55C44 52.7909 45.7909 51 48 51H152C154.209 51 156 52.7909 156 55V71C156 73.2091 154.209 75 152 75H48Z" fill="white"/>
<path d="M87.9951 75L106.38 90.4269L63.9562 140.986C62.5362 142.678 60.0132 142.899 58.3209 141.479L46.0642 131.194C44.3719 129.774 44.1511 127.251 45.5711 125.559L87.9951 75Z" fill="white"/>
<path d="M94 90.4269L112.385 75L154.809 125.559C156.229 127.251 156.008 129.774 154.316 131.194L142.059 141.479C140.367 142.899 137.844 142.678 136.424 140.986L94 90.4269Z" fill="white"/>
</svg>
