<svg width="17" height="25" viewBox="0 0 17 25" fill="none" xmlns="http://www.w3.org/2000/svg">
<rect y="8.48529" width="12" height="12" rx="1" transform="rotate(-45 0 8.48529)" fill="#1A1A1A"/>
<path fill-rule="evenodd" clip-rule="evenodd" d="M0.707092 11.7782C0.316711 12.1687 0.316711 12.8018 0.707092 13.1924L2.00006 14.4853L0.707092 15.7782C0.316711 16.1687 0.316711 16.8018 0.707092 17.1924L7.77814 24.2635C8.16876 24.654 8.80182 24.654 9.19244 24.2635L16.2635 17.1924C16.6541 16.8018 16.6541 16.1687 16.2635 15.7782L14.9705 14.4853L16.2635 13.1924C16.6541 12.8018 16.6541 12.1687 16.2635 11.7782L9.19244 4.70706C8.80182 4.31656 8.16876 4.31656 7.77814 4.70706L0.707092 11.7782ZM14.9705 14.4853L9.19244 8.70706C8.80182 8.31656 8.16876 8.31656 7.77814 8.70706L2.00006 14.4853L7.77814 20.2635C8.16876 20.654 8.80182 20.654 9.19244 20.2635L14.9705 14.4853Z" fill="#1A1A1A"/>
</svg>
