<svg width="34" height="31" viewBox="0 0 34 31" fill="none" xmlns="http://www.w3.org/2000/svg">
<path d="M25.5782 1.08424C25.1349 0.651722 24.4291 0.656176 24.0018 1.09418L19.0502 6.16992C17.8538 7.39634 15.8776 7.40881 14.6362 6.19777L9.49839 1.1857C9.05503 0.753182 8.34922 0.757637 7.92193 1.19564L0.80407 8.49201C0.376778 8.93002 0.389804 9.63572 0.833165 10.0682L8.2187 17.2731C8.66206 17.7056 9.36787 17.7011 9.79516 17.2631L14.7467 12.1874C15.9431 10.961 17.9194 10.9485 19.1608 12.1596L24.2986 17.1716C24.7419 17.6041 25.4477 17.5997 25.875 17.1617L32.9929 9.86531C33.4202 9.4273 33.4071 8.7216 32.9638 8.28909L25.5782 1.08424Z" fill="#1A1A1A"/>
<path d="M15.8738 14.5252C16.3011 14.0872 17.0069 14.0827 17.4503 14.5152L24.8358 21.7201C25.2792 22.1526 25.2922 22.8583 24.8649 23.2963L17.747 30.5927C17.3197 31.0307 16.6139 31.0351 16.1706 30.6026L8.78504 23.3978C8.34168 22.9653 8.32866 22.2596 8.75595 21.8216L15.8738 14.5252Z" fill="#1A1A1A"/>
</svg>
