<svg width="200" height="200" viewBox="0 0 200 200" fill="none" xmlns="http://www.w3.org/2000/svg">
<path d="M0 45.4545C0 20.3507 20.3507 0 45.4545 0H154.545C179.649 0 200 20.3507 200 45.4545V154.545C200 179.649 179.649 200 154.545 200H45.4545C20.3507 200 0 179.649 0 154.545V45.4545Z" fill="#3C00FF"/>
<path d="M120.492 109.4C120.868 106.298 121.15 103.196 121.15 100C121.15 96.804 120.868 93.702 120.492 90.6H136.378C137.13 93.608 137.6 96.757 137.6 100C137.6 103.243 137.13 106.392 136.378 109.4H120.492ZM112.173 135.532C114.993 130.315 117.155 124.675 118.659 118.8H132.524C128.012 126.555 120.821 132.571 112.173 135.532ZM110.998 109.4H89.002C88.532 106.298 88.25 103.196 88.25 100C88.25 96.804 88.532 93.655 89.002 90.6H110.998C111.421 93.655 111.75 96.804 111.75 100C111.75 103.196 111.421 106.298 110.998 109.4ZM100 137.412C96.099 131.772 92.95 125.521 91.023 118.8H108.977C107.05 125.521 103.901 131.772 100 137.412ZM81.2 81.2H67.476C71.941 73.398 79.179 67.382 87.78 64.468C84.96 69.685 82.845 75.325 81.2 81.2ZM67.476 118.8H81.2C82.845 124.675 84.96 130.315 87.78 135.532C79.179 132.571 71.941 126.555 67.476 118.8ZM63.622 109.4C62.87 106.392 62.4 103.243 62.4 100C62.4 96.757 62.87 93.608 63.622 90.6H79.508C79.132 93.702 78.85 96.804 78.85 100C78.85 103.196 79.132 106.298 79.508 109.4H63.622ZM100 62.541C103.901 68.181 107.05 74.479 108.977 81.2H91.023C92.95 74.479 96.099 68.181 100 62.541ZM132.524 81.2H118.659C117.155 75.325 114.993 69.685 112.173 64.468C120.821 67.429 128.012 73.398 132.524 81.2ZM100 53C74.009 53 53 74.15 53 100C53 112.465 57.9518 124.42 66.766 133.234C71.1303 137.598 76.3116 141.06 82.0139 143.422C87.7162 145.784 93.8279 147 100 147C112.465 147 124.42 142.048 133.234 133.234C142.048 124.42 147 112.465 147 100C147 93.8279 145.784 87.7162 143.422 82.0139C141.06 76.3116 137.598 71.1303 133.234 66.766C128.87 62.4016 123.688 58.9396 117.986 56.5777C112.284 54.2157 106.172 53 100 53V53Z" fill="#EDEDED"/>
</svg>
