<svg width="200" height="200" viewBox="0 0 200 200" fill="none" xmlns="http://www.w3.org/2000/svg">
<path d="M0 45.4545C0 20.3507 20.3507 0 45.4545 0H154.545C179.649 0 200 20.3507 200 45.4545V154.545C200 179.649 179.649 200 154.545 200H45.4545C20.3507 200 0 179.649 0 154.545V45.4545Z" fill="#1A1A1A"/>
<path fill-rule="evenodd" clip-rule="evenodd" d="M116 116.699C133.673 116.699 148 102.439 148 84.8493C148 67.2594 133.673 53 116 53C99.1886 53 85.405 65.9029 84.1009 82.3015C84.0673 82.3014 84.0336 82.3014 84 82.3014C66.3269 82.3014 52 96.5608 52 114.151C52 131.741 66.3269 146 84 146C100.811 146 114.595 133.097 115.899 116.698C115.933 116.699 115.966 116.699 116 116.699ZM107.636 115.6C110.271 116.308 113.041 116.69 115.899 116.698C115.966 115.858 116 115.008 116 114.151C116 96.5943 101.728 82.3557 84.1009 82.3015C84.0341 83.142 84 83.9917 84 84.8493C84 86.8085 84.1777 88.7263 84.518 90.5877C84.3458 90.584 84.1731 90.5822 84 90.5822C70.9219 90.5822 60.32 101.134 60.32 114.151C60.32 127.167 70.9219 137.719 84 137.719C96.5892 137.719 106.884 127.941 107.636 115.6ZM107.636 115.6C95.8328 112.427 86.7327 102.702 84.518 90.5877C97.3569 90.862 107.68 101.306 107.68 114.151C107.68 114.637 107.665 115.12 107.636 115.6Z" fill="#F3F3F3"/>
<path fill-rule="evenodd" clip-rule="evenodd" d="M134.5 137.643C137.34 137.643 139.643 135.34 139.643 132.5C139.643 129.66 137.34 127.357 134.5 127.357C131.66 127.357 129.357 129.66 129.357 132.5C129.357 135.34 131.66 137.643 134.5 137.643ZM134.5 146C141.956 146 148 139.956 148 132.5C148 125.044 141.956 119 134.5 119C127.044 119 121 125.044 121 132.5C121 139.956 127.044 146 134.5 146Z" fill="#F3F3F3"/>
</svg>
