<svg width="8" height="8" viewBox="0 0 10 10" fill="none" xmlns="http://www.w3.org/2000/svg">
<path fill-rule="evenodd" clip-rule="evenodd" d="M2.53075 0.430091L4.98569 4.27905L4.27152 4.65423L1.81657 0.805268L2.53075 0.430091Z" fill="white"/>
<path fill-rule="evenodd" clip-rule="evenodd" d="M9.45291 7.40896L4.43987 5.06866L4.81733 4.40271L9.83038 6.74301L9.45291 7.40896Z" fill="white"/>
<path fill-rule="evenodd" clip-rule="evenodd" d="M7.53704 9.87219C7.53706 9.87229 7.53707 9.87237 7.1305 9.93614C6.72393 9.9999 6.72394 9.99996 6.72395 10L6.72362 9.99829C6.72334 9.99684 6.72288 9.99448 6.72224 9.99125C6.72096 9.98478 6.71897 9.97479 6.71623 9.96148C6.71076 9.93484 6.70235 9.8949 6.69087 9.84318C6.66791 9.73972 6.63271 9.5893 6.58425 9.40411C6.48721 9.0332 6.3377 8.52538 6.128 7.97711C5.70016 6.85844 5.0529 5.65695 4.16307 5.046C3.18793 4.37648 2.14659 3.80223 1.34592 3.39428C0.946335 3.19069 0.608382 3.02937 0.370877 2.91919C0.252158 2.86411 0.158632 2.82186 0.0951602 2.79354C0.0634271 2.77938 0.0392146 2.76871 0.0231309 2.76166C0.0150896 2.75813 0.00908072 2.75551 0.00518135 2.75382L0 2.75157C2.00754e-05 2.75158 -0.000112069 2.75152 0.176881 2.41328C0.353874 2.07503 0.35392 2.07505 0.353973 2.07508L0.356106 2.076L0.361578 2.07837C0.366293 2.08042 0.37313 2.0834 0.382013 2.08729C0.399778 2.09508 0.425729 2.10652 0.459254 2.12148C0.526297 2.1514 0.623665 2.19539 0.746461 2.25236C0.991986 2.36626 1.33955 2.53218 1.74989 2.74126C2.5691 3.15865 3.64532 3.75146 4.66094 4.44876C5.76187 5.20465 6.47386 6.59753 6.90757 7.73154C7.12866 8.30959 7.2855 8.84268 7.38712 9.2311C7.438 9.42556 7.47521 9.58442 7.49982 9.6953C7.51213 9.75076 7.5213 9.79427 7.52746 9.82429C7.53054 9.83929 7.53287 9.85093 7.53447 9.85901C7.53527 9.86305 7.53588 9.8662 7.53632 9.86843L7.53683 9.8711L7.53704 9.87219Z" fill="white"/>
<path fill-rule="evenodd" clip-rule="evenodd" d="M4.62806 4.33558L9.99893 4.32926L10 5.07815L4.62913 5.08448L4.62806 4.33558Z" fill="white"/>
<path fill-rule="evenodd" clip-rule="evenodd" d="M4.4092 4.50731L9.1058 2.00808L9.52319 2.65411L4.82659 5.15334L4.4092 4.50731Z" fill="white"/>
<path fill-rule="evenodd" clip-rule="evenodd" d="M4.31789 4.69923L7.03867 0.41941L7.75343 0.793663L5.03265 5.07348L4.31789 4.69923Z" fill="white"/>
<path fill-rule="evenodd" clip-rule="evenodd" d="M4.38103 4.87977L4.3632 0.00248446L5.18839 0L5.20622 4.87729L4.38103 4.87977Z" fill="white"/>
</svg>
