<svg width="24" height="24" viewBox="0 0 24 24" fill="none" xmlns="http://www.w3.org/2000/svg">
<path fill-rule="evenodd" clip-rule="evenodd" d="M7.06128 2.86027L11.9713 10.5581L10.5429 11.3084L5.6329 3.61061L7.06128 2.86027Z" fill="white"/>
<path fill-rule="evenodd" clip-rule="evenodd" d="M20.9057 16.8177L10.8794 12.1371L11.6344 10.8053L21.6607 15.4858L20.9057 16.8177Z" fill="white"/>
<path fill-rule="evenodd" clip-rule="evenodd" d="M17.0744 21.7444C17.0745 21.7446 17.0745 21.7448 16.2614 21.8723C15.4482 21.9998 15.4482 21.9999 15.4482 22L15.4476 21.9966C15.447 21.9937 15.4461 21.989 15.4448 21.9825C15.4423 21.9696 15.4383 21.9496 15.4328 21.923C15.4219 21.8697 15.405 21.7898 15.3821 21.6864C15.3361 21.4794 15.2657 21.1786 15.1688 20.8082C14.9747 20.0664 14.6757 19.0508 14.2563 17.9543C13.4006 15.717 12.106 13.314 10.3263 12.0922C8.37602 10.7531 6.29329 9.60467 4.69192 8.78878C3.89272 8.38159 3.21679 8.05896 2.74177 7.8386C2.50433 7.72846 2.31727 7.64395 2.19032 7.58731C2.12686 7.55899 2.07843 7.53765 2.04626 7.52355C2.03018 7.5165 2.01816 7.51126 2.01036 7.50787L2.00185 7.50418L2 7.50338C2.00004 7.50339 1.99978 7.50328 2.35377 6.8268C2.70777 6.15032 2.70786 6.15036 2.70796 6.1504L2.71223 6.15225L2.72317 6.15699C2.73261 6.16109 2.74628 6.16705 2.76405 6.17484C2.79958 6.19041 2.85148 6.2133 2.91853 6.24321C3.05262 6.30304 3.24736 6.39103 3.49296 6.50496C3.98402 6.73275 4.67916 7.0646 5.49988 7.48275C7.13832 8.31753 9.29082 9.50311 11.3221 10.8977C13.524 12.4095 14.948 15.1952 15.8155 17.4631C16.2577 18.6192 16.5714 19.6854 16.7746 20.4622C16.8764 20.8511 16.9508 21.1688 17 21.3906C17.0246 21.5015 17.043 21.5885 17.0553 21.6486C17.0615 21.6786 17.0661 21.7019 17.0693 21.718C17.0709 21.7261 17.0721 21.7324 17.073 21.7369L17.074 21.7422L17.0744 21.7444Z" fill="white"/>
<path fill-rule="evenodd" clip-rule="evenodd" d="M11.2559 10.671L21.9979 10.6583L22 12.1561L11.258 12.1688L11.2559 10.671Z" fill="white"/>
<path fill-rule="evenodd" clip-rule="evenodd" d="M10.8187 11.0143L20.2121 6.01589L21.0469 7.30793L11.6535 12.3063L10.8187 11.0143Z" fill="white"/>
<path fill-rule="evenodd" clip-rule="evenodd" d="M10.6356 11.3986L16.0773 2.83908L17.5068 3.58757L12.0651 12.1471L10.6356 11.3986Z" fill="white"/>
<path fill-rule="evenodd" clip-rule="evenodd" d="M10.7619 11.7594L10.7262 2.00497L12.3766 2L12.4123 11.7544L10.7619 11.7594Z" fill="white"/>
</svg>
