<svg width="13" height="13" viewBox="0 0 13 13" fill="none" xmlns="http://www.w3.org/2000/svg">
<path fill-rule="evenodd" clip-rule="evenodd" d="M4.91488 4.70105C3.91449 4.01934 2.76305 3.54014 1.52129 3.32264C1.02704 3.23608 0.518648 3.19097 0 3.19097V4.106C0.466325 4.106 0.922696 4.14655 1.3658 4.22416C4.88284 4.84016 7.57524 7.7916 7.76365 11.3878C7.77066 11.5217 7.77422 11.6565 7.77422 11.7922C7.77422 12.1584 7.74835 12.5184 7.69838 12.8705L8.59726 13C8.65329 12.6052 8.68224 12.2019 8.68224 11.7922C8.68224 11.6404 8.67826 11.4895 8.6704 11.3395C8.61249 10.2341 8.34422 9.18461 7.90471 8.22915L11.1358 11.0489L11.7304 10.3573L8.05287 7.14433L12.8708 7.84099L13 6.93527L8.18248 6.23587L12.6091 4.19719L12.6093 4.19708L12.2321 3.36474L7.80414 5.40102L10.4344 1.27407L9.67055 0.779371L7.03795 4.90482L7.03658 0H6.12856L6.12719 4.90482L3.4946 0.779371L2.73072 1.27407L4.91488 4.70105Z" fill="white"/>
</svg>
