<svg width="1" height="1" viewBox="0 0 1 1" fill="none" xmlns="http://www.w3.org/2000/svg">
<path fill-rule="evenodd" clip-rule="evenodd" d="M0.378068 0.361619C0.301115 0.30918 0.212542 0.272318 0.117023 0.255588C0.0790029 0.248929 0.039896 0.24546 0 0.24546V0.315846C0.0358712 0.315846 0.0709766 0.318965 0.105062 0.324935C0.375603 0.37232 0.582711 0.599354 0.597204 0.875981C0.597743 0.886282 0.598017 0.896656 0.598017 0.907096C0.598017 0.935264 0.596027 0.962952 0.592183 0.990036L0.661328 1C0.665638 0.969627 0.667864 0.938609 0.667864 0.907096C0.667864 0.895417 0.667559 0.883806 0.666954 0.87227C0.662499 0.787239 0.641863 0.706508 0.608055 0.633012L0.856598 0.849914L0.902338 0.796719L0.619452 0.549564L0.99006 0.603153L1 0.533482L0.629422 0.479683L0.96993 0.322861L0.969948 0.322852L0.940932 0.258826L0.600318 0.415463L0.802648 0.0980056L0.743888 0.0599516L0.541381 0.377294L0.541276 0H0.471428L0.471322 0.377294L0.268815 0.0599516L0.210056 0.0980056L0.378068 0.361619Z" fill="#272727"/>
</svg>
