<svg width="30" height="30" viewBox="0 0 30 30" fill="none" xmlns="http://www.w3.org/2000/svg">
<path fill-rule="evenodd" clip-rule="evenodd" d="M13.0491 12.7859C11.8178 11.9469 10.4007 11.3571 8.87236 11.0894C8.26405 10.9829 7.63834 10.9274 7 10.9274V12.0535C7.57394 12.0535 8.13563 12.1034 8.68099 12.199C13.0097 12.9571 16.3234 16.5897 16.5553 21.0157C16.5639 21.1805 16.5683 21.3465 16.5683 21.5135C16.5683 21.9642 16.5364 22.4072 16.4749 22.8406L17.5812 23C17.6502 22.514 17.6858 22.0177 17.6858 21.5135C17.6858 21.3267 17.6809 21.1409 17.6713 20.9563C17.6 19.5958 17.2698 18.3041 16.7289 17.1282L20.7056 20.5986L21.4374 19.7475L16.9112 15.793L22.841 16.6504L23 15.5357L17.0708 14.6749L22.5189 12.1658L22.5192 12.1656L22.0549 11.1412L16.6051 13.6474L19.8424 8.56809L18.9022 7.95923L15.6621 13.0367L15.6604 7H14.5428L14.5412 13.0367L11.301 7.95923L10.3609 8.56809L13.0491 12.7859Z" fill="white"/>
</svg>
