<svg width="200" height="200" viewBox="0 0 200 200" fill="none" xmlns="http://www.w3.org/2000/svg">
<path d="M0 45.4545C0 20.3507 20.3507 0 45.4545 0H154.545C179.649 0 200 20.3507 200 45.4545V154.545C200 179.649 179.649 200 154.545 200H45.4545C20.3507 200 0 179.649 0 154.545V45.4545Z" fill="#FF0000"/>
<path d="M53.1873 59.375C51.427 59.375 50 60.9355 50 62.8606V76.8029C50 78.7279 51.427 80.2885 53.1873 80.2885H90.239L51.0444 123.42C49.8064 124.783 49.8095 126.984 51.0515 128.342L60.0734 138.208C61.3181 139.57 63.3362 139.57 64.5809 138.208L90.239 110.149V146.514C90.239 148.439 91.666 150 93.4263 150H106.175C107.936 150 109.363 148.439 109.363 146.514V109.89L135.257 138.208C136.502 139.57 138.52 139.57 139.764 138.208L148.78 128.349C150.024 126.988 150.025 124.782 148.781 123.42L109.363 80.2885H146.813C148.573 80.2885 150 78.7279 150 76.8029V62.8606C150 60.9355 148.573 59.375 146.813 59.375H53.1873Z" fill="white"/>
</svg>
